<svg xmlns="http://www.w3.org/2000/svg" width="32" height="33" viewBox="0 0 32 33" class="{{className}}">
    <g fill-rule="nonzero">
        <path class="a" d="M12.226 25c-.243 0-.49-.066-.703-.204-.555-.357-.69-1.059-.3-1.567l5.535-7.23-5.517-7.229c-.389-.51-.254-1.21.302-1.567.556-.356 1.32-.232 1.71.277l6.01 7.875c.295.388.295.904-.001 1.292l-6.03 7.875c-.24.312-.619.478-1.006.478" transform="translate(-1161.000000, -331.000000) translate(492.000000, 312.000000) translate(685.000000, 36.000000) rotate(-180.000000) translate(-685.000000, -36.000000) translate(669.000000, 20.000000) translate(15.241961, 16.000000) rotate(90.000000) translate(-15.241961, -16.000000)"/>
    </g>
</svg>
