<svg xmlns="http://www.w3.org/2000/svg" width="32" height="32" viewBox="0 0 32 32">
    <path style="fill: #008738;" d="M15.402 6.077L6.7 12.505c-.448.398-.67.862-.698 1.356L6 23.73c.003.965.798 1.744 1.78 1.747H13c.552 0 1-.44 1-.98v-4.113c0-1.083.895-1.96 2-1.96s2 .877 2 1.96V24.5c0 .541.448.98 1 .98h5.217c.984-.003 1.779-.781 1.783-1.743v-9.822c-.03-.548-.253-1.011-.622-1.346l-.077-.063-8.695-6.428c-.356-.264-.847-.264-1.204 0zm.6 2.01l7.999 5.912L24 23.52h-4v-3.135c0-2.165-1.79-3.92-4-3.92l-.2.005c-2.116.102-3.8 1.815-3.8 3.915v3.132H7.999L8 13.992l8.002-5.905z"/>
</svg>
