<svg xmlns="http://www.w3.org/2000/svg" xmlns:xlink="http://www.w3.org/1999/xlink" width="32" height="33" viewBox="0 0 32 33">
    <defs>
        <path id="ub9lr4yela" d="M17.798 12.031c1.764 1.476 2.12 3.456.792 5.247-.325.438-.95.534-1.397.216-.447-.318-.545-.931-.22-1.369.683-.921.531-1.763-.474-2.603-.898-.752-2.214-.737-3.095.01l-.129.117-3.58 3.509c-.927.909-.927 2.383 0 3.292.928.909 2.432.909 3.36 0 .39-.383 1.023-.383 1.414 0 .39.382.39 1.003 0 1.385-1.709 1.675-4.479 1.675-6.188 0-1.653-1.62-1.706-4.215-.16-5.898l.16-.165 3.58-3.508c1.613-1.585 4.199-1.686 5.937-.233zm6.619-1.955c1.653 1.62 1.706 4.215.16 5.898l-.16.165-3.58 3.508c-1.614 1.584-4.2 1.685-5.936.231-1.73-1.447-1.93-3.461-.58-5.28.325-.439.95-.535 1.397-.217.447.318.546.931.221 1.369-.746 1.006-.661 1.867.26 2.638.898.751 2.214.737 3.095-.01l.129-.117 3.58-3.508c.927-.909.927-2.382 0-3.291-.928-.91-2.432-.91-3.36 0-.39.382-1.023.382-1.414 0-.39-.383-.39-1.004 0-1.386 1.709-1.675 4.479-1.675 6.188 0z"/>
    </defs>
    <g fill="none" fill-rule="evenodd">
        <g>
            <g>
                <g>
                    <g transform="translate(-230.000000, -333.000000) translate(214.000000, 94.000000) translate(0.000000, 233.000000) translate(16.000000, 6.860000)">
                        <mask id="q1g13ddtwb" fill="#fff">
                            <use xlink:href="#ub9lr4yela"/>
                        </mask>
                        <use fill="#000" fill-rule="nonzero" xlink:href="#ub9lr4yela"/>
                        <g fill="#008738" fill-rule="nonzero" mask="url(#q1g13ddtwb)">
                            <path d="M0 0H32V31.36H0z"/>
                        </g>
                    </g>
                </g>
            </g>
        </g>
    </g>
</svg>
